<?xml version="1.0" encoding="utf-8"?>
<!-- Generator: Adobe Illustrator 22.1.0, SVG Export Plug-In . SVG Version: 6.00 Build 0)  -->
<svg version="1.1" id="Laag_1" xmlns="http://www.w3.org/2000/svg" xmlns:xlink="http://www.w3.org/1999/xlink" x="0px" y="0px"
	 viewBox="0 0 219 195.1" style="enable-background:new 0 0 219 195.1;" xml:space="preserve">
<style type="text/css">
	.st0{fill:#FFFFFF;}
	.st1{fill:#4FB267;}
</style>
<path class="st0" d="M101.4,132.9h13.5V98.8h10.6l1.3-11.4h-11.6v-9.5c0,0,0-2.1,2.1-2.4s9.4-0.1,9.4-0.1l0.1-10.5l-15.9,0.3
	c0,0-9.5,1.1-9.5,9.5s0,13.2,0,13.2h-7.1L94,98.2l7.7,0.3L101.4,132.9z"/>
<ellipse class="st1" cx="108.3" cy="100.7" rx="93.5" ry="88"/>
<path class="st0" d="M107.8,118.2c19.9,0,33.8-21.9,33.8-41.6s-13.7-32.8-33.8-32.8S73.9,56.9,73.9,76.6S87.8,118.2,107.8,118.2z
	 M107.8,55.7c5.2,0,21.7,1.6,21.7,20.9c0,15.3-10.5,29.6-21.7,29.6S86.1,91.9,86.1,76.6C86.1,57.1,102.6,55.7,107.8,55.7z"/>
<path class="st0" d="M107.8,178.5 M158.3,147.8c0,0,0.2,0.3,8.7-8.8l-27.6-18.4c0,0-0.2,0-0.2-0.2l-0.2-0.2c-0.2,0-0.2-0.2-0.4-0.2
	c-0.2,0-0.4-0.2-0.5-0.2c-0.2,0-0.4-0.2-0.5-0.2c-0.2,0-0.4-0.2-0.5-0.2s-0.4,0-0.5,0c-0.2,0-0.4,0-0.5,0c-0.2,0-0.4,0-0.5,0
	s-0.4,0-0.5,0.2c-0.2,0-0.4,0.2-0.5,0.2c-0.2,0-0.4,0.2-0.5,0.2s-0.4,0.2-0.5,0.2c-0.5,0.4-0.7,0.4-0.9,0.5
	c-0.2,0.2-0.4,0.2-0.5,0.4c-0.2,0.2-0.4,0.4-0.4,0.4c-0.2,0.2-0.2,0.4-0.4,0.5c0,0.2-0.2,0.2-0.2,0.4c0,0,0,0.2-0.2,0.2l-0.2,0.2
	c-5.7,10.2-14.2,16.1-23,16.1c-8.5,0-17.1-6.1-23-16.3l-0.2-0.2c0,0,0-0.2-0.2-0.2c0-0.2-0.2-0.2-0.2-0.4c-0.2-0.2-0.4-0.4-0.4-0.5
	c-0.2-0.2-0.2-0.2-0.4-0.4s-0.4-0.4-0.5-0.4c-0.2,0-0.2,0-0.4-0.2s-0.4-0.2-0.7-0.4c-0.2,0-0.2-0.2-0.4-0.2
	c-0.2-0.2-0.5-0.2-0.7-0.2c-0.2,0-0.2,0-0.4,0c-0.4,0-0.5,0-0.9,0h-0.2c-0.4,0-0.5,0-0.9,0.2h-0.2c-0.4,0-0.5,0.2-0.9,0.4
	c0,0-0.2,0-0.2,0.2c-0.2,0-0.4,0.2-0.5,0.2s-0.2,0.2-0.4,0.2l0,0L48.5,139l8.7,8.8l20.6-13.7c0,0,12.9,18.1,29.9,16.8
	s23-8.6,29.9-16.8 M137.7,134.1l20.6,13.7"/>
</svg>
