<?xml version="1.0" encoding="utf-8"?>
<!-- Generator: Adobe Illustrator 22.1.0, SVG Export Plug-In . SVG Version: 6.00 Build 0)  -->
<svg version="1.1" id="Laag_1" xmlns="http://www.w3.org/2000/svg" xmlns:xlink="http://www.w3.org/1999/xlink" x="0px" y="0px"
	 viewBox="0 0 57.1 35" style="enable-background:new 0 0 57.1 35;" xml:space="preserve">
<style type="text/css">
	.st0{fill:#FFFFFF;}
	.st1{fill:#00D66C;}
</style>
<path class="st0" d="M17.1,23.2h2.4V17h1.9l0.2-2.1h-2.1v-1.7c0,0,0-0.4,0.4-0.4c0.4,0,1.7,0,1.7,0l0-1.9l-2.9,0
	c0,0-1.7,0.2-1.7,1.7s0,2.4,0,2.4h-1.3l0,1.9l1.4,0L17.1,23.2z"/>
<ellipse class="st1" cx="18.3" cy="17.4" rx="17" ry="16"/>
<path class="st0" d="M18.8,21.2c4.1,0,7-4.5,7-8.6s-2.8-6.8-7-6.8s-7,2.7-7,6.8S14.7,21.2,18.8,21.2z M18.8,8.2
	c1.1,0,4.5,0.3,4.5,4.3c0,3.2-2.2,6.1-4.5,6.1s-4.5-3-4.5-6.1C14.3,8.5,17.7,8.2,18.8,8.2z"/>
<path class="st0" d="M18.8,33.7 M29.3,27.3c0,0,0,0.1,1.8-1.8l-5.7-3.8c0,0,0,0,0,0l0,0c0,0,0,0-0.1,0s-0.1,0-0.1,0c0,0-0.1,0-0.1,0
	c0,0-0.1,0-0.1,0c0,0-0.1,0-0.1,0c0,0-0.1,0-0.1,0c0,0-0.1,0-0.1,0c0,0-0.1,0-0.1,0c0,0-0.1,0-0.1,0c0,0-0.1,0-0.1,0
	c0,0-0.1,0-0.1,0c-0.1,0.1-0.1,0.1-0.2,0.1s-0.1,0-0.1,0.1c0,0-0.1,0.1-0.1,0.1c0,0,0,0.1-0.1,0.1c0,0,0,0,0,0.1c0,0,0,0,0,0l0,0
	c-1.2,2.1-3,3.3-4.8,3.3c-1.8,0-3.5-1.3-4.8-3.4l0,0c0,0,0,0,0,0c0,0,0,0,0-0.1c0,0-0.1-0.1-0.1-0.1c0,0,0,0-0.1-0.1
	c0,0-0.1-0.1-0.1-0.1c0,0,0,0-0.1,0c0,0-0.1,0-0.1-0.1c0,0,0,0-0.1,0c0,0-0.1,0-0.1,0c0,0,0,0-0.1,0c-0.1,0-0.1,0-0.2,0h0
	c-0.1,0-0.1,0-0.2,0h0c-0.1,0-0.1,0-0.2,0.1c0,0,0,0,0,0c0,0-0.1,0-0.1,0c0,0,0,0-0.1,0l0,0l-5.8,3.8l1.8,1.8l4.3-2.8
	c0,0,2.7,3.7,6.2,3.5s4.8-1.8,6.2-3.5 M25,24.5l4.3,2.8"/>
</svg>
