<?xml version="1.0" encoding="utf-8"?>
<!-- Generator: Adobe Illustrator 22.1.0, SVG Export Plug-In . SVG Version: 6.00 Build 0)  -->
<svg version="1.1" id="Laag_1" xmlns="http://www.w3.org/2000/svg" xmlns:xlink="http://www.w3.org/1999/xlink" x="0px" y="0px"
	 viewBox="0 0 57.1 35" style="enable-background:new 0 0 57.1 35;" xml:space="preserve">
<style type="text/css">
	.st0{fill:#00D66C;}
	.st1{fill:#FFFFFF;}
</style>
<path class="st0" d="M33.8,17.5c0-8.9-7-16-15.9-16S1.9,8.6,1.9,17.5c0,8.9,7,16,15.9,16C26.7,33.5,33.8,26.4,33.8,17.5L33.8,17.5
	L33.8,17.5z"/>
<path class="st1" d="M24.9,19.8H24c-0.9,0-1.3,0.5-1.4,1.4c-0.2,1.7-1.6,2.8-3.3,2.8c-2,0-3.4-1.5-3.4-3.7v-5.1c0-0.2,0-0.4-0.1-0.5
	c0.2,0.1,0.4,0.1,0.7,0.1h4.7c0.9,0,1.4-0.5,1.4-1.4V13c0-0.9-0.5-1.4-1.4-1.4h-2.7V8.7c0-0.9-0.5-1.4-1.4-1.4h-0.6
	c-0.9,0-1.4,0.5-1.4,1.4v4.7c0,0.2,0,0.4,0.1,0.5c-0.2-0.1-0.5-0.1-0.7-0.1H9.8c-0.9,0-1.4,0.5-1.4,1.4v0.4c0,0.9,0.5,1.4,1.4,1.4
	h2.7v3.3c0,4.1,2.7,7,6.8,7c3.9,0,6.4-2.5,6.9-6.2C26.3,20.3,25.7,19.8,24.9,19.8L24.9,19.8z"/>
<ellipse class="st0" cx="17.7" cy="17.5" rx="16" ry="15.9"/>
<path class="st1" d="M16.7,24h2.4v-6.2H21l0.2-2.1h-2V14c0,0,0-0.4,0.4-0.4c0.4,0,1.6,0,1.6,0l0-1.9l-2.8,0c0,0-1.7,0.2-1.7,1.7
	s0,2.4,0,2.4h-1.3l0,1.9l1.3,0L16.7,24z"/>
<ellipse class="st1" cx="16.4" cy="15.9" rx="8.5" ry="8.4"/>
<ellipse class="st0" cx="16.4" cy="16" rx="5.8" ry="5.6"/>
<path class="st1" d="M21.3,22.8c0,0,2,3.4,4.6,5c0,0,1.6-0.4,1.8-2c0,0-1.6-3-4.6-4.8L21.3,22.8z"/>
</svg>
